<?xml version="1.0" encoding="iso-8859-1"?>
<!-- Generator: Adobe Illustrator 19.0.0, SVG Export Plug-In . SVG Version: 6.00 Build 0)  -->
<svg version="1.1" id="Capa_1" xmlns="http://www.w3.org/2000/svg" xmlns:xlink="http://www.w3.org/1999/xlink" x="0px" y="0px"
	 viewBox="0 0 440.32 440.32" style="enable-background:new 0 0 440.32 440.32;" xml:space="preserve">
<g>
	<g>
		<path d="M343.552,186.88v-61.952C343.552,56.32,288.256,0,220.16,0S96.768,55.808,96.768,124.928v62.976
			C72.704,215.04,57.344,250.88,57.344,289.792c0,82.432,68.096,150.528,151.552,150.528h22.528
			c83.456,0,151.552-68.096,151.552-151.552C382.976,249.344,367.616,214.016,343.552,186.88z M242.688,361.472h-45.056v-78.336
			h45.056V361.472z M299.008,153.6c-19.968-10.24-43.008-15.872-67.584-15.872h-22.528c-24.064,0-47.104,5.632-67.584,15.872
			v-28.672c0-44.032,35.328-79.872,78.848-79.872s78.848,35.328,78.848,79.872V153.6z"/>
	</g>
</g>
<g>
</g>
<g>
</g>
<g>
</g>
<g>
</g>
<g>
</g>
<g>
</g>
<g>
</g>
<g>
</g>
<g>
</g>
<g>
</g>
<g>
</g>
<g>
</g>
<g>
</g>
<g>
</g>
<g>
</g>
</svg>
